<svg xmlns="http://www.w3.org/2000/svg" xmlns:xlink="http://www.w3.org/1999/xlink" shape-rendering="geometricPrecision" text-rendering="geometricPrecision" viewBox="0 0 320 240" style="white-space: pre;">
    <style>
@keyframes top_t { 0% { transform: translate(150.58025px,84.6964px) scale(1.441678,0) translate(-9.41975px,-67.6964px); animation-timing-function: cubic-bezier(0,0,0.58,1); } 14.2857% { transform: translate(150.58025px,84.6964px) scale(0.857799,1.118175) translate(-9.41975px,-67.6964px); animation-timing-function: cubic-bezier(0.42,0,1,1); } 21.4285% { transform: translate(150.58025px,84.6964px) scale(1,1) translate(-9.41975px,-67.6964px); } 92.8571% { transform: translate(150.58025px,84.6964px) scale(1,1) translate(-9.41975px,-67.6964px); animation-timing-function: cubic-bezier(0,0,0.58,1); } 100% { transform: translate(150.58025px,84.6964px) scale(1,0) translate(-9.41975px,-67.6964px); } }
@keyframes right_t { 0% { transform: rotate(35.927788deg) scale(1,0) translate(-9.3596px,-45.8616px); } 10.5263% { transform: rotate(35.927788deg) scale(0.683179,1.257975) translate(-9.3596px,-45.8616px); } 15.7894% { transform: rotate(35.927788deg) scale(1,1) translate(-9.3596px,-45.8616px); } 94.7368% { transform: rotate(35.927788deg) scale(1,1) translate(-9.3596px,-45.8616px); animation-timing-function: cubic-bezier(0,0,0.58,1); } 100% { transform: rotate(35.927788deg) scale(1,0) translate(-9.3596px,-45.8616px); } }
@keyframes right_mo { 0% { offset-distance: 0%; } 50% { offset-distance: 47.949%; } 100% { offset-distance: 100%; } }
@keyframes bot_t { 0% { transform: translate(150.5782px,171.5636px) scale(1,0) translate(-9.87283px,-0.067187px); animation-timing-function: cubic-bezier(0.42,0,0.58,1); } 16.6666% { transform: translate(150.5782px,171.5636px) scale(0.56564,1.368596) translate(-9.87283px,-0.067187px); animation-timing-function: cubic-bezier(0.42,0,0.58,1); } 25% { transform: translate(150.5782px,171.5636px) scale(1,1) translate(-9.87283px,-0.067187px); } 91.6666% { transform: translate(150.5782px,171.5636px) scale(1,1) translate(-9.87283px,-0.067187px); animation-timing-function: cubic-bezier(0,0,0.58,1); } 100% { transform: translate(150.5782px,171.5636px) scale(1,0) translate(-9.87283px,-0.067187px); } }
@keyframes base_t { 0% { transform: translate(150.5782px,128.23px) rotate(0deg) scale(1,1) translate(-34.87285px,-43.5336px); animation-timing-function: cubic-bezier(0.42,0,0.58,1); } 25% { transform: translate(150.5782px,128.23px) rotate(23.316408deg) scale(1.061579,1.061579) translate(-34.87285px,-43.5336px); animation-timing-function: cubic-bezier(0.42,0,0.58,1); } 50% { transform: translate(150.5782px,128.23px) rotate(-12.078314deg) scale(0.934678,0.934678) translate(-34.87285px,-43.5336px); animation-timing-function: cubic-bezier(0.42,0,0.58,1); } 75% { transform: translate(150.5782px,128.23px) rotate(7.865776deg) scale(1.030984,1.030984) translate(-34.87285px,-43.5336px); animation-timing-function: cubic-bezier(0.42,0,0.58,1); } 100% { transform: translate(150.5782px,128.23px) rotate(0deg) scale(1,1) translate(-34.87285px,-43.5336px); } }
    </style>
    <g id="top" stroke="none" stroke-width="1" fill="none" fill-rule="evenodd" transform="translate(150.58,84.6964) scale(1.44168,0) translate(-9.41975,-67.6964)" style="animation: top_t 1.4s linear 0.9s both;">
        <path id="Fill-2" d="M11.9839,67.6964L11.9839,18.4395C15.9307,17.3174,18.8395,13.7255,18.8395,9.41771C18.8395,4.21551,14.622,0,9.41977,0C4.21756,0,0,4.21551,0,9.41771C0,13.7255,2.9088,17.3174,6.85559,18.4395C6.85559,51.2774,6.85559,67.6964,6.85559,67.6964C6.85559,67.6964,8.56504,67.6964,11.9839,67.6964Z" fill="#F89420" fill-rule="nonzero" transform="translate(9.41975,67.6964) translate(-9.41975,-67.6964)"/>
    </g>
    <g id="right" stroke="none" stroke-width="1" fill="none" fill-rule="evenodd" transform=" rotate(35.9278) scale(1,0) translate(-9.3596,-45.8616)" style="animation: right_t 1.9s linear 0.4s both, right_mo 0.2s linear 0.4s both; offset-path: path('M165.294,92.4684C167.185,92.9495,169.705,91.9873,172.093,92.7183C175.247,93.6833,177.581,95.9661,172.094,92.2684'); offset-rotate: 0deg;">
        <path id="Fill-4" d="M11.8822,45.8616L11.8776,18.7364C15.6149,17.6143,18.7192,14.0224,18.7192,9.71459C18.7192,4.51238,14.8466,0,9.33146,0C3.81632,0,0.0494737,4.32031,0.000401435,9.71459C-0.0382765,13.9663,2.72184,17.438,6.61222,18.7364C6.7346,18.7772,6.7346,27.819,6.61222,45.8616L11.8822,45.8616Z" fill="#F89420" fill-rule="nonzero" opacity="1"/>
    </g>
    <g id="bot" stroke="none" stroke-width="1" fill="none" fill-rule="evenodd" transform="translate(150.578,171.564) scale(1,0) translate(-9.87283,-0.0671875)" style="animation: bot_t 1.2s linear 1s both;">
        <path id="Fill-1" d="M7.30865,0.0671875L7.30865,14.8635C3.36186,15.9856,0.45306,19.5775,0.45306,23.8833C0.45306,29.0855,4.67062,33.303,9.87283,33.303C15.075,33.303,19.2926,29.0855,19.2926,23.8833C19.2926,19.5775,16.3838,15.9856,12.437,14.8635L12.437,0.0671875L7.30865,0.0671875Z" fill="#F89420" fill-rule="nonzero"/>
    </g>
    <g id="base" stroke="none" stroke-width="1" fill="none" fill-rule="evenodd" transform="translate(150.578,128.23) translate(-34.8728,-43.5336)" style="animation: base_t 0.4s linear 0.2s both;">
        <path id="Fill-5" d="M34.8708,68.5928C25.0961,57.2243,14.3594,41.9889,14.3594,34.7436C14.3594,23.4304,23.5617,14.2302,34.8728,14.2302C46.1839,14.2302,55.3863,23.4304,55.3863,34.7436C55.3863,41.9746,44.6475,57.216,34.8708,68.5928M53.1236,5.08528C48.4958,2.22366,43.1623,0.420525,37.437,0L32.3086,0C14.2753,1.32106,0,16.3779,0,34.7436C0,52.02,24.7023,79.0218,29.6563,84.261L32.3086,87.0672L37.437,87.0672L40.0894,84.261C45.0413,79.0218,69.7457,52.02,69.7457,34.7436C69.7457,24.0479,64.8983,14.4743,57.294,8.07203L53.1236,5.08528Z" fill="#F89420" fill-rule="nonzero"/>
    </g>
</svg>